<mxfile host="app.diagrams.net" modified="2023-05-29T12:41:22.506Z" agent="Mozilla/5.0 (X11; Linux x86_64; rv:109.0) Gecko/20100101 Firefox/111.0" etag="N9VS4YqCHQ2XF3vNWloZ" version="21.3.5" type="device">
  <diagram name="Page-1" id="4FeBpE9oYEEjGYgYSw3x">
    <mxGraphModel dx="1557" dy="1548" grid="1" gridSize="10" guides="1" tooltips="1" connect="1" arrows="1" fold="1" page="1" pageScale="1" pageWidth="850" pageHeight="1100" math="0" shadow="0">
      <root>
        <mxCell id="0" />
        <mxCell id="1" parent="0" />
        <mxCell id="aGE6vGoBaRrfHNZcApY9-1" value="&lt;div&gt;&lt;font style=&quot;font-size: 24px;&quot; face=&quot;Verdana&quot; color=&quot;#ffffff&quot;&gt;40.8%&lt;/font&gt;&lt;/div&gt;" style="rounded=0;whiteSpace=wrap;html=1;fillColor=#17C22E;" parent="1" vertex="1">
          <mxGeometry x="600" y="440" width="480" height="40" as="geometry" />
        </mxCell>
        <mxCell id="aGE6vGoBaRrfHNZcApY9-2" value="&lt;div&gt;&lt;font style=&quot;font-size: 24px;&quot; face=&quot;Verdana&quot; color=&quot;#ffffff&quot;&gt;9.9%&lt;/font&gt;&lt;/div&gt;" style="rounded=0;whiteSpace=wrap;html=1;fillColor=#9933FF;" parent="1" vertex="1">
          <mxGeometry x="80" y="440" width="120" height="40" as="geometry" />
        </mxCell>
        <mxCell id="aGE6vGoBaRrfHNZcApY9-3" value="&lt;div&gt;&lt;font style=&quot;font-size: 24px;&quot; face=&quot;Verdana&quot; color=&quot;#ffffff&quot;&gt;29.2%&lt;/font&gt;&lt;/div&gt;" style="rounded=0;whiteSpace=wrap;html=1;fillColor=#333333;" parent="1" vertex="1">
          <mxGeometry x="200" y="440" width="360" height="40" as="geometry" />
        </mxCell>
        <mxCell id="aGE6vGoBaRrfHNZcApY9-4" value="" style="rounded=0;whiteSpace=wrap;html=1;fillColor=#61C0FF;" parent="1" vertex="1">
          <mxGeometry x="560" y="440" width="40" height="40" as="geometry" />
        </mxCell>
        <mxCell id="aGE6vGoBaRrfHNZcApY9-5" value="&lt;div&gt;&lt;font style=&quot;font-size: 24px;&quot; face=&quot;Verdana&quot; color=&quot;#ffffff&quot;&gt;15.9%&lt;/font&gt;&lt;/div&gt;" style="rounded=0;whiteSpace=wrap;html=1;fillColor=#EB0000;" parent="1" vertex="1">
          <mxGeometry x="1080" y="440" width="180" height="40" as="geometry" />
        </mxCell>
        <mxCell id="aGE6vGoBaRrfHNZcApY9-6" value="&lt;font style=&quot;font-size: 24px;&quot; face=&quot;Verdana&quot;&gt;organism 1&lt;br&gt;&lt;/font&gt;" style="text;html=1;strokeColor=none;fillColor=none;align=center;verticalAlign=middle;whiteSpace=wrap;rounded=0;" parent="1" vertex="1">
          <mxGeometry x="60" y="400" width="160" height="30" as="geometry" />
        </mxCell>
        <mxCell id="aGE6vGoBaRrfHNZcApY9-7" value="&lt;font style=&quot;font-size: 24px;&quot; face=&quot;Verdana&quot;&gt;organism 2&lt;br&gt;&lt;/font&gt;" style="text;html=1;strokeColor=none;fillColor=none;align=center;verticalAlign=middle;whiteSpace=wrap;rounded=0;" parent="1" vertex="1">
          <mxGeometry x="300" y="400" width="160" height="30" as="geometry" />
        </mxCell>
        <mxCell id="aGE6vGoBaRrfHNZcApY9-8" value="&lt;font style=&quot;font-size: 24px;&quot; face=&quot;Verdana&quot;&gt;organism 3&lt;br&gt;&lt;/font&gt;" style="text;html=1;strokeColor=none;fillColor=none;align=center;verticalAlign=middle;whiteSpace=wrap;rounded=0;" parent="1" vertex="1">
          <mxGeometry x="500" y="400" width="160" height="30" as="geometry" />
        </mxCell>
        <mxCell id="aGE6vGoBaRrfHNZcApY9-9" value="&lt;font style=&quot;font-size: 24px;&quot; face=&quot;Verdana&quot;&gt;organism 4&lt;br&gt;&lt;/font&gt;" style="text;html=1;strokeColor=none;fillColor=none;align=center;verticalAlign=middle;whiteSpace=wrap;rounded=0;" parent="1" vertex="1">
          <mxGeometry x="760" y="400" width="160" height="30" as="geometry" />
        </mxCell>
        <mxCell id="aGE6vGoBaRrfHNZcApY9-10" value="&lt;font style=&quot;font-size: 24px;&quot; face=&quot;Verdana&quot;&gt;organism 5&lt;br&gt;&lt;/font&gt;" style="text;html=1;strokeColor=none;fillColor=none;align=center;verticalAlign=middle;whiteSpace=wrap;rounded=0;" parent="1" vertex="1">
          <mxGeometry x="1090" y="400" width="160" height="30" as="geometry" />
        </mxCell>
        <mxCell id="aGE6vGoBaRrfHNZcApY9-15" value="" style="endArrow=none;html=1;rounded=0;entryX=0;entryY=1;entryDx=0;entryDy=0;" parent="1" target="aGE6vGoBaRrfHNZcApY9-3" edge="1">
          <mxGeometry width="50" height="50" relative="1" as="geometry">
            <mxPoint x="200" y="520" as="sourcePoint" />
            <mxPoint x="730" y="270" as="targetPoint" />
          </mxGeometry>
        </mxCell>
        <mxCell id="aGE6vGoBaRrfHNZcApY9-16" value="" style="endArrow=none;html=1;rounded=0;entryX=0;entryY=1;entryDx=0;entryDy=0;" parent="1" target="aGE6vGoBaRrfHNZcApY9-4" edge="1">
          <mxGeometry width="50" height="50" relative="1" as="geometry">
            <mxPoint x="560" y="520" as="sourcePoint" />
            <mxPoint x="210" y="490" as="targetPoint" />
          </mxGeometry>
        </mxCell>
        <mxCell id="aGE6vGoBaRrfHNZcApY9-17" value="" style="endArrow=none;html=1;rounded=0;entryX=1;entryY=1;entryDx=0;entryDy=0;" parent="1" target="aGE6vGoBaRrfHNZcApY9-4" edge="1">
          <mxGeometry width="50" height="50" relative="1" as="geometry">
            <mxPoint x="600" y="520" as="sourcePoint" />
            <mxPoint x="220" y="500" as="targetPoint" />
          </mxGeometry>
        </mxCell>
        <mxCell id="aGE6vGoBaRrfHNZcApY9-18" value="" style="endArrow=none;html=1;rounded=0;entryX=0;entryY=1;entryDx=0;entryDy=0;" parent="1" target="aGE6vGoBaRrfHNZcApY9-5" edge="1">
          <mxGeometry width="50" height="50" relative="1" as="geometry">
            <mxPoint x="1080" y="520" as="sourcePoint" />
            <mxPoint x="610" y="490" as="targetPoint" />
          </mxGeometry>
        </mxCell>
        <mxCell id="aGE6vGoBaRrfHNZcApY9-19" value="" style="endArrow=none;html=1;rounded=0;entryX=1;entryY=1;entryDx=0;entryDy=0;" parent="1" target="aGE6vGoBaRrfHNZcApY9-5" edge="1">
          <mxGeometry width="50" height="50" relative="1" as="geometry">
            <mxPoint x="1260" y="520" as="sourcePoint" />
            <mxPoint x="620" y="500" as="targetPoint" />
          </mxGeometry>
        </mxCell>
        <mxCell id="aGE6vGoBaRrfHNZcApY9-22" value="&lt;font style=&quot;font-size: 24px;&quot; face=&quot;Verdana&quot;&gt;0.23&lt;/font&gt;" style="text;html=1;strokeColor=none;fillColor=none;align=center;verticalAlign=middle;whiteSpace=wrap;rounded=0;" parent="1" vertex="1">
          <mxGeometry x="170" y="520" width="60" height="30" as="geometry" />
        </mxCell>
        <mxCell id="aGE6vGoBaRrfHNZcApY9-23" value="&lt;font style=&quot;font-size: 24px;&quot; face=&quot;Verdana&quot;&gt;0.91&lt;/font&gt;" style="text;html=1;strokeColor=none;fillColor=none;align=center;verticalAlign=middle;whiteSpace=wrap;rounded=0;" parent="1" vertex="1">
          <mxGeometry x="510" y="520" width="60" height="30" as="geometry" />
        </mxCell>
        <mxCell id="aGE6vGoBaRrfHNZcApY9-24" value="&lt;font style=&quot;font-size: 24px;&quot; face=&quot;Verdana&quot;&gt;1.01&lt;/font&gt;" style="text;html=1;strokeColor=none;fillColor=none;align=center;verticalAlign=middle;whiteSpace=wrap;rounded=0;" parent="1" vertex="1">
          <mxGeometry x="590" y="520" width="60" height="30" as="geometry" />
        </mxCell>
        <mxCell id="aGE6vGoBaRrfHNZcApY9-25" value="&lt;font style=&quot;font-size: 24px;&quot; face=&quot;Verdana&quot;&gt;1.96&lt;/font&gt;" style="text;html=1;strokeColor=none;fillColor=none;align=center;verticalAlign=middle;whiteSpace=wrap;rounded=0;" parent="1" vertex="1">
          <mxGeometry x="1050" y="520" width="60" height="30" as="geometry" />
        </mxCell>
        <mxCell id="aGE6vGoBaRrfHNZcApY9-26" value="&lt;font style=&quot;font-size: 24px;&quot; face=&quot;Verdana&quot;&gt;2.33&lt;/font&gt;" style="text;html=1;strokeColor=none;fillColor=none;align=center;verticalAlign=middle;whiteSpace=wrap;rounded=0;" parent="1" vertex="1">
          <mxGeometry x="1230" y="520" width="60" height="30" as="geometry" />
        </mxCell>
        <mxCell id="aGE6vGoBaRrfHNZcApY9-27" value="" style="endArrow=classic;html=1;rounded=0;strokeWidth=2;entryX=0.833;entryY=1.05;entryDx=0;entryDy=0;entryPerimeter=0;" parent="1" edge="1" target="aGE6vGoBaRrfHNZcApY9-1">
          <mxGeometry width="50" height="50" relative="1" as="geometry">
            <mxPoint x="1000" y="560" as="sourcePoint" />
            <mxPoint x="1000" y="500" as="targetPoint" />
          </mxGeometry>
        </mxCell>
        <mxCell id="aGE6vGoBaRrfHNZcApY9-28" value="&lt;font style=&quot;font-size: 24px;&quot; face=&quot;Verdana&quot;&gt;r = 1.89&lt;br&gt;&lt;/font&gt;" style="text;html=1;strokeColor=none;fillColor=none;align=center;verticalAlign=middle;whiteSpace=wrap;rounded=0;" parent="1" vertex="1">
          <mxGeometry x="940" y="560" width="130" height="30" as="geometry" />
        </mxCell>
        <mxCell id="4KRrW6hDzmG4KH3Rtg1f-1" value="" style="endArrow=none;html=1;rounded=0;entryX=0;entryY=1;entryDx=0;entryDy=0;" edge="1" parent="1" target="aGE6vGoBaRrfHNZcApY9-2">
          <mxGeometry width="50" height="50" relative="1" as="geometry">
            <mxPoint x="80" y="520" as="sourcePoint" />
            <mxPoint x="210" y="490" as="targetPoint" />
          </mxGeometry>
        </mxCell>
        <mxCell id="4KRrW6hDzmG4KH3Rtg1f-2" value="&lt;font style=&quot;font-size: 24px;&quot; face=&quot;Verdana&quot;&gt;0&lt;/font&gt;" style="text;html=1;strokeColor=none;fillColor=none;align=center;verticalAlign=middle;whiteSpace=wrap;rounded=0;" vertex="1" parent="1">
          <mxGeometry x="50" y="520" width="60" height="30" as="geometry" />
        </mxCell>
      </root>
    </mxGraphModel>
  </diagram>
</mxfile>
